<?xml version="1.0" encoding="utf-8" standalone="no"?>
<!DOCTYPE svg PUBLIC "-//W3C//DTD SVG 1.1//EN"
  "http://www.w3.org/Graphics/SVG/1.1/DTD/svg11.dtd">
<svg xmlns:xlink="http://www.w3.org/1999/xlink" width="675.591813pt" height="409.087687pt" viewBox="0 0 675.591813 409.087687" xmlns="http://www.w3.org/2000/svg" version="1.1">
 <metadata>
  <rdf:RDF xmlns:dc="http://purl.org/dc/elements/1.1/" xmlns:cc="http://creativecommons.org/ns#" xmlns:rdf="http://www.w3.org/1999/02/22-rdf-syntax-ns#">
   <cc:Work>
    <dc:type rdf:resource="http://purl.org/dc/dcmitype/StillImage"/>
    <dc:date>2026-05-23T20:44:14.767662</dc:date>
    <dc:format>image/svg+xml</dc:format>
    <dc:creator>
     <cc:Agent>
      <dc:title>Matplotlib v3.10.7, https://matplotlib.org/</dc:title>
     </cc:Agent>
    </dc:creator>
   </cc:Work>
  </rdf:RDF>
 </metadata>
 <defs>
  <style type="text/css">*{stroke-linejoin: round; stroke-linecap: butt}</style>
 </defs>
 <g id="figure_1">
  <g id="patch_1">
   <path d="M 0 409.087687 
L 675.591813 409.087687 
L 675.591813 0 
L 0 0 
z
" style="fill: #ffffff"/>
  </g>
  <g id="axes_1">
   <g id="patch_2">
    <path d="M 40.407813 384.408 
L 668.391813 384.408 
L 668.391813 49.608 
L 40.407813 49.608 
z
" style="fill: #ffffff"/>
   </g>
   <g id="patch_3">
    <path d="M 68.95254 384.408 
L 112.495344 384.408 
L 112.495344 299.862545 
L 68.95254 299.862545 
z
" clip-path="url(#pd1d65c9624)" style="fill: #94a3b8; stroke: #64748b; stroke-width: 0.8; stroke-linejoin: miter"/>
   </g>
   <g id="patch_4">
    <path d="M 189.904774 384.408 
L 233.447578 384.408 
L 233.447578 215.317091 
L 189.904774 215.317091 
z
" clip-path="url(#pd1d65c9624)" style="fill: #94a3b8; stroke: #64748b; stroke-width: 0.8; stroke-linejoin: miter"/>
   </g>
   <g id="patch_5">
    <path d="M 310.857008 384.408 
L 354.399813 384.408 
L 354.399813 130.771636 
L 310.857008 130.771636 
z
" clip-path="url(#pd1d65c9624)" style="fill: #94a3b8; stroke: #64748b; stroke-width: 0.8; stroke-linejoin: miter"/>
   </g>
   <g id="patch_6">
    <path d="M 431.809242 384.408 
L 475.352047 384.408 
L 475.352047 147.680727 
L 431.809242 147.680727 
z
" clip-path="url(#pd1d65c9624)" style="fill: #94a3b8; stroke: #64748b; stroke-width: 0.8; stroke-linejoin: miter"/>
   </g>
   <g id="patch_7">
    <path d="M 552.761477 384.408 
L 596.304281 384.408 
L 596.304281 173.044364 
L 552.761477 173.044364 
z
" clip-path="url(#pd1d65c9624)" style="fill: #94a3b8; stroke: #64748b; stroke-width: 0.8; stroke-linejoin: miter"/>
   </g>
   <g id="patch_8">
    <path d="M 112.495344 384.408 
L 156.038148 384.408 
L 156.038148 325.226182 
L 112.495344 325.226182 
z
" clip-path="url(#pd1d65c9624)" style="fill: #2563eb; stroke: #1e40af; stroke-width: 0.8; stroke-linejoin: miter"/>
   </g>
   <g id="patch_9">
    <path d="M 233.447578 384.408 
L 276.990383 384.408 
L 276.990383 232.226182 
L 233.447578 232.226182 
z
" clip-path="url(#pd1d65c9624)" style="fill: #2563eb; stroke: #1e40af; stroke-width: 0.8; stroke-linejoin: miter"/>
   </g>
   <g id="patch_10">
    <path d="M 354.399813 384.408 
L 397.942617 384.408 
L 397.942617 139.226182 
L 354.399813 139.226182 
z
" clip-path="url(#pd1d65c9624)" style="fill: #2563eb; stroke: #1e40af; stroke-width: 0.8; stroke-linejoin: miter"/>
   </g>
   <g id="patch_11">
    <path d="M 475.352047 384.408 
L 518.894851 384.408 
L 518.894851 156.135273 
L 475.352047 156.135273 
z
" clip-path="url(#pd1d65c9624)" style="fill: #2563eb; stroke: #1e40af; stroke-width: 0.8; stroke-linejoin: miter"/>
   </g>
   <g id="patch_12">
    <path d="M 596.304281 384.408 
L 639.847085 384.408 
L 639.847085 206.862545 
L 596.304281 206.862545 
z
" clip-path="url(#pd1d65c9624)" style="fill: #2563eb; stroke: #1e40af; stroke-width: 0.8; stroke-linejoin: miter"/>
   </g>
   <g id="matplotlib.axis_1">
    <g id="xtick_1">
     <g id="line2d_1">
      <defs>
       <path id="m1fed89f649" d="M 0 0 
L 0 3.5 
" style="stroke: #000000; stroke-width: 0.8"/>
      </defs>
      <g>
       <use xlink:href="#m1fed89f649" x="112.495344" y="384.408" style="stroke: #000000; stroke-width: 0.8"/>
      </g>
     </g>
     <g id="text_1">
      <!-- 助餐 -->
      <g transform="translate(102.495344 399.40175) scale(0.1 -0.1)">
       <defs>
        <path id="MicrosoftYaHei-52a9" d="M 3156 3966 
L 3875 3966 
Q 3888 4606 3894 5259 
L 4394 5259 
Q 4388 4622 4375 3966 
L 5969 3966 
Q 5881 941 5844 259 
Q 5794 -703 4981 -709 
Q 4775 -709 4138 -684 
Q 4094 -397 4038 -122 
Q 4538 -191 4913 -191 
Q 5306 -191 5350 328 
Q 5394 1109 5463 3509 
L 4366 3509 
Q 4344 1928 4163 1191 
Q 3869 -34 2919 -853 
Q 2794 -628 2606 -397 
Q 2959 -119 3206 238 
Q 1834 44 175 -209 
L 100 291 
Q 359 319 625 347 
L 625 4884 
L 2819 4884 
L 2819 625 
Q 3038 656 3256 691 
Q 3250 566 3234 275 
Q 3538 728 3675 1303 
Q 3850 1981 3866 3509 
L 3156 3509 
L 3156 3966 
z
M 2350 563 
L 2350 1566 
L 1094 1566 
L 1094 400 
Q 1716 475 2350 563 
z
M 2350 4466 
L 1094 4466 
L 1094 3428 
L 2350 3428 
L 2350 4466 
z
M 1094 1978 
L 2350 1978 
L 2350 3016 
L 1094 3016 
L 1094 1978 
z
" transform="scale(0.015625)"/>
        <path id="MicrosoftYaHei-9910" d="M 3581 3347 
L 3475 3222 
Q 4719 2228 6381 1753 
Q 6231 1566 6088 1341 
Q 5475 1572 4938 1828 
L 4938 372 
Q 5175 509 5419 684 
L 5694 359 
Q 5275 122 4769 -122 
Q 5381 -303 5894 -472 
L 5694 -859 
Q 4244 -322 2700 72 
L 2856 397 
Q 3619 197 4281 16 
Q 4613 184 4863 328 
L 4538 328 
L 4538 472 
L 1831 472 
L 1831 -359 
Q 2344 -259 3150 -78 
Q 3138 -266 3138 -484 
Q 2363 -628 1788 -772 
Q 1663 -809 1506 -891 
L 1263 -516 
Q 1419 -384 1419 -191 
L 1419 1747 
Q 881 1447 319 1191 
Q 200 1397 63 1566 
Q 1875 2297 3106 3347 
L 3581 3347 
z
M 906 3391 
L 1163 3641 
Q 1456 3422 1706 3216 
Q 2138 3497 2488 3853 
L 1038 3853 
Q 781 3553 475 3291 
Q 281 3441 131 3522 
Q 763 4028 1125 4622 
L 1513 4509 
Q 1406 4334 1288 4178 
L 1788 4178 
L 1788 5309 
L 2200 5309 
L 2200 4941 
L 3238 4941 
L 3238 4616 
L 2200 4616 
L 2200 4178 
L 2963 4178 
L 2963 3834 
Q 2000 2728 406 2159 
Q 294 2334 125 2509 
Q 800 2703 1363 3003 
Q 1181 3166 906 3391 
z
M 3538 4103 
L 3763 4397 
Q 4225 4166 4688 3928 
Q 5106 4228 5463 4634 
L 3631 4634 
L 3631 4991 
L 5975 4991 
L 5975 4653 
Q 5563 4116 5075 3728 
Q 5619 3441 6163 3141 
L 5894 2772 
Q 5300 3122 4713 3459 
Q 4344 3216 3944 3047 
Q 3819 3197 3644 3391 
Q 3988 3509 4300 3684 
Q 3919 3897 3538 4103 
z
M 4538 784 
L 4538 1134 
L 1831 1134 
L 1831 784 
L 4538 784 
z
M 1831 1778 
L 1831 1434 
L 4538 1434 
L 4538 1778 
L 1831 1778 
z
M 2881 2441 
L 3250 2584 
Q 3400 2347 3513 2091 
L 4469 2091 
Q 3881 2416 3213 2947 
Q 2631 2491 1988 2091 
L 3075 2091 
Q 2981 2272 2881 2441 
z
" transform="scale(0.015625)"/>
       </defs>
       <use xlink:href="#MicrosoftYaHei-52a9"/>
       <use xlink:href="#MicrosoftYaHei-9910" transform="translate(100 0)"/>
      </g>
     </g>
    </g>
    <g id="xtick_2">
     <g id="line2d_2">
      <g>
       <use xlink:href="#m1fed89f649" x="233.447578" y="384.408" style="stroke: #000000; stroke-width: 0.8"/>
      </g>
     </g>
     <g id="text_2">
      <!-- 日间照料 -->
      <g transform="translate(213.447578 399.40175) scale(0.1 -0.1)">
       <defs>
        <path id="MicrosoftYaHei-65e5" d="M 975 4909 
L 5431 4909 
L 5431 -766 
L 4900 -766 
L 4900 -322 
L 1506 -322 
L 1506 -766 
L 975 -766 
L 975 4909 
z
M 1506 2103 
L 1506 134 
L 4900 134 
L 4900 2103 
L 1506 2103 
z
M 1506 4441 
L 1506 2572 
L 4900 2572 
L 4900 4441 
L 1506 4441 
z
" transform="scale(0.015625)"/>
        <path id="MicrosoftYaHei-95f4" d="M 1863 3647 
L 4513 3647 
L 4513 553 
L 2313 553 
L 2313 166 
L 1863 166 
L 1863 3647 
z
M 2388 4453 
L 2388 4922 
L 6013 4922 
L 6013 -28 
Q 6013 -816 5119 -816 
Q 4756 -816 4169 -803 
Q 4144 -616 4069 -297 
Q 4588 -334 5056 -334 
Q 5525 -334 5525 122 
L 5525 4453 
L 2388 4453 
z
M 419 4084 
L 906 4084 
L 906 -816 
L 419 -816 
L 419 4084 
z
M 2313 997 
L 4063 997 
L 4063 1884 
L 2313 1884 
L 2313 997 
z
M 4063 3203 
L 2313 3203 
L 2313 2328 
L 4063 2328 
L 4063 3203 
z
M 744 5003 
L 1100 5322 
Q 1575 4872 1981 4447 
L 1575 4091 
Q 1194 4541 744 5003 
z
" transform="scale(0.015625)"/>
        <path id="MicrosoftYaHei-7167" d="M 488 4997 
L 2500 4997 
L 2500 916 
L 2038 916 
L 2038 1153 
L 950 1153 
L 950 872 
L 488 872 
L 488 4997 
z
M 3156 2791 
L 5938 2791 
L 5938 866 
L 5475 866 
L 5475 1059 
L 3619 1059 
L 3619 866 
L 3156 866 
L 3156 2791 
z
M 2944 4609 
L 2944 5022 
L 5969 5022 
Q 5944 4366 5906 3891 
Q 5844 3109 5094 3109 
Q 4844 3109 4356 3128 
Q 4319 3359 4263 3622 
Q 4756 3559 5013 3559 
Q 5413 3559 5444 3922 
Q 5481 4366 5481 4609 
L 4166 4609 
Q 4150 3353 3006 2716 
Q 2863 2903 2681 3084 
Q 3713 3628 3706 4609 
L 2944 4609 
z
M 5475 2391 
L 3619 2391 
L 3619 1459 
L 5475 1459 
L 5475 2391 
z
M 950 1578 
L 2038 1578 
L 2038 2884 
L 950 2884 
L 950 1578 
z
M 2038 4572 
L 950 4572 
L 950 3309 
L 2038 3309 
L 2038 4572 
z
M 844 728 
L 1288 559 
Q 1050 -22 613 -809 
Q 400 -709 169 -609 
Q 631 166 844 728 
z
M 5025 547 
L 5425 784 
Q 5863 184 6213 -422 
L 5775 -678 
Q 5438 -59 5025 547 
z
M 1906 453 
L 2319 641 
Q 2663 22 2900 -522 
L 2450 -722 
Q 2225 -166 1906 453 
z
M 3513 497 
L 3925 678 
Q 4263 109 4525 -447 
L 4081 -659 
Q 3806 -34 3513 497 
z
" transform="scale(0.015625)"/>
        <path id="MicrosoftYaHei-6599" d="M 88 541 
Q 756 1397 1113 2472 
L 150 2472 
L 150 2897 
L 1194 2897 
L 1194 5297 
L 1656 5297 
L 1656 2897 
L 2675 2897 
L 2675 2472 
L 1656 2472 
L 1656 1853 
L 1938 2078 
Q 2363 1628 2706 1216 
L 2350 928 
Q 2025 1372 1656 1778 
L 1656 -828 
L 1194 -828 
L 1194 1691 
Q 800 641 281 41 
Q 200 297 88 541 
z
M 2850 1353 
L 4850 1597 
L 4850 5297 
L 5331 5297 
L 5331 1653 
L 6281 1772 
L 6319 1322 
L 5331 1197 
L 5331 -828 
L 4850 -828 
L 4850 1141 
L 2913 903 
L 2850 1353 
z
M 2981 2778 
L 3250 3109 
Q 3844 2716 4356 2309 
L 4050 1934 
Q 3569 2347 2981 2778 
z
M 1806 3347 
Q 2094 4053 2288 4653 
L 2731 4516 
Q 2500 3897 2194 3184 
L 1806 3347 
z
M 3119 4366 
L 3406 4697 
Q 3944 4309 4463 3859 
L 4150 3491 
Q 3744 3884 3119 4366 
z
M 144 4516 
L 519 4666 
Q 750 4128 1025 3416 
L 594 3222 
Q 313 4066 144 4516 
z
" transform="scale(0.015625)"/>
       </defs>
       <use xlink:href="#MicrosoftYaHei-65e5"/>
       <use xlink:href="#MicrosoftYaHei-95f4" transform="translate(100 0)"/>
       <use xlink:href="#MicrosoftYaHei-7167" transform="translate(200 0)"/>
       <use xlink:href="#MicrosoftYaHei-6599" transform="translate(300 0)"/>
      </g>
     </g>
    </g>
    <g id="xtick_3">
     <g id="line2d_3">
      <g>
       <use xlink:href="#m1fed89f649" x="354.399813" y="384.408" style="stroke: #000000; stroke-width: 0.8"/>
      </g>
     </g>
     <g id="text_3">
      <!-- 上门护理 -->
      <g transform="translate(334.399813 399.40175) scale(0.1 -0.1)">
       <defs>
        <path id="MicrosoftYaHei-4e0a" d="M 163 47 
L 2613 47 
L 2613 5209 
L 3181 5209 
L 3181 3328 
L 5750 3328 
L 5750 2828 
L 3181 2828 
L 3181 47 
L 6244 47 
L 6244 -453 
L 163 -453 
L 163 47 
z
" transform="scale(0.015625)"/>
        <path id="MicrosoftYaHei-95e8" d="M 2463 4403 
L 2463 4878 
L 5850 4878 
L 5850 166 
Q 5850 -728 4994 -728 
Q 4606 -728 4000 -716 
Q 3969 -503 3900 -197 
Q 4475 -234 4894 -234 
Q 5350 -234 5350 241 
L 5350 4403 
L 2463 4403 
z
M 575 4053 
L 1075 4053 
L 1075 -797 
L 575 -797 
L 575 4053 
z
M 856 5028 
L 1213 5347 
Q 1631 4953 2094 4472 
L 1688 4116 
Q 1256 4609 856 5028 
z
" transform="scale(0.015625)"/>
        <path id="MicrosoftYaHei-62a4" d="M 3719 5078 
L 4131 5341 
Q 4388 5041 4694 4616 
L 4291 4353 
L 5988 4353 
L 5988 1572 
L 5506 1572 
L 5506 1872 
L 3100 1872 
Q 3016 222 2206 -847 
Q 2050 -684 1800 -491 
Q 2625 522 2625 2409 
L 2625 4353 
L 4222 4353 
Q 3953 4763 3719 5078 
z
M 88 1997 
Q 528 2113 1013 2250 
L 1013 3691 
L 175 3691 
L 175 4122 
L 1013 4122 
L 1013 5297 
L 1494 5297 
L 1494 4122 
L 2288 4122 
L 2288 3691 
L 1494 3691 
L 1494 2388 
Q 1875 2500 2281 2622 
Q 2288 2309 2294 2128 
Q 1900 2016 1494 1894 
L 1494 -41 
Q 1494 -716 838 -722 
Q 625 -728 263 -722 
Q 225 -453 175 -203 
Q 544 -234 744 -234 
Q 1013 -234 1013 59 
L 1013 1744 
Q 588 1609 150 1466 
L 88 1997 
z
M 3113 3903 
L 3113 2322 
L 5506 2322 
L 5506 3903 
L 3113 3903 
z
" transform="scale(0.015625)"/>
        <path id="MicrosoftYaHei-7406" d="M 2031 -166 
L 3988 -166 
L 3988 734 
L 2394 734 
L 2394 1172 
L 3988 1172 
L 3988 1997 
L 2988 1997 
L 2988 1766 
L 2525 1766 
L 2525 4991 
L 5913 4991 
L 5913 1766 
L 5450 1766 
L 5450 1997 
L 4450 1997 
L 4450 1172 
L 6044 1172 
L 6044 734 
L 4450 734 
L 4450 -166 
L 6319 -166 
L 6319 -603 
L 2031 -603 
L 2031 -166 
z
M 44 203 
Q 525 319 975 434 
L 975 2328 
L 194 2328 
L 194 2766 
L 975 2766 
L 975 4328 
L 131 4328 
L 131 4766 
L 2281 4766 
L 2281 4328 
L 1438 4328 
L 1438 2766 
L 2231 2766 
L 2231 2328 
L 1438 2328 
L 1438 559 
Q 1850 675 2238 791 
Q 2269 509 2306 303 
Q 1238 16 213 -303 
L 44 203 
z
M 4450 2422 
L 5450 2422 
L 5450 3291 
L 4450 3291 
L 4450 2422 
z
M 2988 2422 
L 3988 2422 
L 3988 3291 
L 2988 3291 
L 2988 2422 
z
M 5450 4566 
L 4450 4566 
L 4450 3703 
L 5450 3703 
L 5450 4566 
z
M 2988 3703 
L 3988 3703 
L 3988 4566 
L 2988 4566 
L 2988 3703 
z
" transform="scale(0.015625)"/>
       </defs>
       <use xlink:href="#MicrosoftYaHei-4e0a"/>
       <use xlink:href="#MicrosoftYaHei-95e8" transform="translate(100 0)"/>
       <use xlink:href="#MicrosoftYaHei-62a4" transform="translate(200 0)"/>
       <use xlink:href="#MicrosoftYaHei-7406" transform="translate(300 0)"/>
      </g>
     </g>
    </g>
    <g id="xtick_4">
     <g id="line2d_4">
      <g>
       <use xlink:href="#m1fed89f649" x="475.352047" y="384.408" style="stroke: #000000; stroke-width: 0.8"/>
      </g>
     </g>
     <g id="text_4">
      <!-- 康复理疗 -->
      <g transform="translate(455.352047 399.40175) scale(0.1 -0.1)">
       <defs>
        <path id="MicrosoftYaHei-5eb7" d="M 3100 5116 
L 3531 5347 
Q 3719 5047 3931 4672 
L 6194 4672 
L 6194 4259 
L 1213 4259 
L 1213 2866 
L 3319 2866 
L 3319 3334 
L 1606 3334 
L 1606 3709 
L 3319 3709 
L 3319 4122 
L 3769 4122 
L 3769 3709 
L 5569 3709 
L 5569 2866 
L 6275 2866 
L 6275 2484 
L 5569 2484 
L 5569 1503 
L 5144 1503 
L 5144 1634 
L 3769 1634 
L 3769 1497 
Q 4075 1122 4425 816 
Q 5063 1147 5563 1466 
L 5856 1097 
Q 5356 828 4763 547 
Q 5419 53 6213 -203 
Q 6025 -453 5900 -641 
Q 4519 -34 3769 891 
L 3769 -134 
Q 3769 -797 3081 -797 
Q 2794 -797 2325 -784 
Q 2300 -528 2250 -291 
Q 2756 -334 3006 -334 
Q 3306 -334 3319 -22 
L 3319 353 
Q 2350 28 1225 -353 
L 1106 91 
Q 2394 466 3319 784 
L 3319 1634 
L 1569 1634 
L 1569 2009 
L 3319 2009 
L 3319 2484 
L 1213 2484 
L 1213 2328 
Q 1213 328 431 -853 
Q 275 -641 88 -428 
Q 738 603 738 2303 
L 738 4672 
L 3369 4672 
Q 3244 4878 3100 5116 
z
M 5144 2009 
L 5144 2484 
L 3769 2484 
L 3769 2009 
L 5144 2009 
z
M 5144 3334 
L 3769 3334 
L 3769 2866 
L 5144 2866 
L 5144 3334 
z
M 1531 1172 
L 1781 1478 
Q 2275 1197 2650 922 
L 2363 572 
Q 1988 884 1531 1172 
z
" transform="scale(0.015625)"/>
        <path id="MicrosoftYaHei-590d" d="M 81 3559 
Q 975 4259 1563 5347 
L 2113 5347 
Q 1963 5084 1803 4841 
L 6200 4841 
L 6200 4441 
L 1525 4441 
Q 1356 4209 1175 3997 
L 5575 3997 
L 5575 1697 
L 5138 1697 
L 5138 1859 
L 1463 1859 
L 1463 1634 
L 1031 1634 
L 1031 3828 
Q 716 3475 369 3166 
Q 263 3347 81 3559 
z
M 81 291 
Q 1231 853 1931 1709 
L 2488 1709 
Q 2350 1534 2206 1372 
L 5588 1372 
L 5588 1034 
Q 4981 494 4038 69 
Q 5016 -188 6319 -284 
Q 6150 -566 6025 -797 
Q 4503 -584 3416 -175 
Q 2303 -563 725 -872 
Q 606 -666 438 -447 
Q 1988 -191 2856 59 
Q 2153 397 1678 838 
Q 1084 303 388 -53 
Q 250 128 81 291 
z
M 1463 2247 
L 5138 2247 
L 5138 2747 
L 1463 2747 
L 1463 2247 
z
M 5138 3609 
L 1463 3609 
L 1463 3116 
L 5138 3116 
L 5138 3609 
z
M 4869 1009 
L 2025 1009 
Q 2572 553 3428 253 
Q 4297 591 4869 1009 
z
" transform="scale(0.015625)"/>
        <path id="MicrosoftYaHei-7597" d="M 3244 5128 
L 3694 5347 
Q 3919 4959 4106 4584 
L 6300 4584 
L 6300 4134 
L 1594 4134 
L 1594 2384 
Q 1594 141 750 -891 
Q 569 -653 375 -466 
Q 975 328 1094 1672 
Q 525 1322 213 1128 
L 94 1653 
Q 600 1897 1125 2191 
L 1125 4584 
L 3550 4584 
Q 3388 4903 3244 5128 
z
M 3763 2072 
L 5063 2941 
L 1988 2941 
L 1988 3384 
L 5838 3384 
L 5838 2934 
L 4250 1834 
L 4250 28 
Q 4250 -716 3531 -716 
Q 3281 -716 2488 -703 
Q 2469 -434 2413 -172 
Q 3031 -234 3400 -234 
Q 3763 -234 3763 134 
L 3763 2072 
z
M 119 3778 
L 513 3928 
Q 738 3428 975 2734 
L 538 2572 
Q 344 3228 119 3778 
z
" transform="scale(0.015625)"/>
       </defs>
       <use xlink:href="#MicrosoftYaHei-5eb7"/>
       <use xlink:href="#MicrosoftYaHei-590d" transform="translate(100 0)"/>
       <use xlink:href="#MicrosoftYaHei-7406" transform="translate(200 0)"/>
       <use xlink:href="#MicrosoftYaHei-7597" transform="translate(300 0)"/>
      </g>
     </g>
    </g>
    <g id="xtick_5">
     <g id="line2d_5">
      <g>
       <use xlink:href="#m1fed89f649" x="596.304281" y="384.408" style="stroke: #000000; stroke-width: 0.8"/>
      </g>
     </g>
     <g id="text_5">
      <!-- 助浴 -->
      <g transform="translate(586.304281 399.40175) scale(0.1 -0.1)">
       <defs>
        <path id="MicrosoftYaHei-6d74" d="M 4388 4016 
L 4238 3778 
Q 4913 2603 6319 1997 
Q 6163 1803 5975 1559 
Q 5800 1641 5644 1728 
L 5644 -847 
L 5169 -847 
L 5169 -428 
L 2781 -428 
L 2781 -853 
L 2306 -853 
L 2306 1703 
Q 2106 1578 1888 1453 
Q 1681 1716 1538 1884 
Q 3206 2709 3869 4147 
L 4388 4016 
z
M 5169 1303 
L 2781 1303 
L 2781 9 
L 5169 9 
L 5169 1303 
z
M 3975 3341 
Q 3400 2434 2350 1741 
L 5625 1741 
Q 4594 2334 3975 3341 
z
M 1075 1772 
Q 1375 1641 1581 1578 
Q 1338 647 900 -828 
L 356 -634 
Q 769 459 1075 1772 
z
M 3281 5172 
L 3669 4816 
Q 2863 3978 2138 3303 
Q 1944 3534 1781 3691 
Q 2550 4322 3281 5172 
z
M 4313 4809 
L 4631 5159 
Q 5469 4503 6231 3884 
L 5900 3472 
Q 5163 4122 4313 4809 
z
M 694 5134 
Q 1288 4728 1894 4234 
Q 1694 4009 1538 3841 
Q 1013 4303 394 4778 
L 694 5134 
z
M 400 3491 
Q 975 3072 1488 2641 
Q 1294 2434 1138 2247 
Q 588 2747 88 3134 
L 400 3491 
z
" transform="scale(0.015625)"/>
       </defs>
       <use xlink:href="#MicrosoftYaHei-52a9"/>
       <use xlink:href="#MicrosoftYaHei-6d74" transform="translate(100 0)"/>
      </g>
     </g>
    </g>
   </g>
   <g id="matplotlib.axis_2">
    <g id="ytick_1">
     <g id="line2d_6">
      <path d="M 40.407813 384.408 
L 668.391813 384.408 
" clip-path="url(#pd1d65c9624)" style="fill: none; stroke: #e5e7eb; stroke-width: 0.8; stroke-linecap: square"/>
     </g>
     <g id="line2d_7">
      <defs>
       <path id="mf20bcd5972" d="M 0 0 
L -3.5 0 
" style="stroke: #000000; stroke-width: 0.8"/>
      </defs>
      <g>
       <use xlink:href="#mf20bcd5972" x="40.407813" y="384.408" style="stroke: #000000; stroke-width: 0.8"/>
      </g>
     </g>
     <g id="text_6">
      <!-- 0 -->
      <g transform="translate(27.54375 388.404875) scale(0.1 -0.1)">
       <defs>
        <path id="MicrosoftYaHei-30" d="M 284 2325 
Q 284 3606 709 4264 
Q 1134 4922 1941 4922 
Q 3478 4922 3478 2441 
Q 3478 1216 3045 567 
Q 2613 -81 1831 -81 
Q 1094 -81 689 534 
Q 284 1150 284 2325 
z
M 909 2353 
Q 909 425 1888 425 
Q 2850 425 2850 2384 
Q 2850 4413 1906 4413 
Q 909 4413 909 2353 
z
" transform="scale(0.015625)"/>
       </defs>
       <use xlink:href="#MicrosoftYaHei-30"/>
      </g>
     </g>
    </g>
    <g id="ytick_2">
     <g id="line2d_8">
      <path d="M 40.407813 342.135273 
L 668.391813 342.135273 
" clip-path="url(#pd1d65c9624)" style="fill: none; stroke: #e5e7eb; stroke-width: 0.8; stroke-linecap: square"/>
     </g>
     <g id="line2d_9">
      <g>
       <use xlink:href="#mf20bcd5972" x="40.407813" y="342.135273" style="stroke: #000000; stroke-width: 0.8"/>
      </g>
     </g>
     <g id="text_7">
      <!-- 5 -->
      <g transform="translate(27.54375 346.132148) scale(0.1 -0.1)">
       <defs>
        <path id="MicrosoftYaHei-35" d="M 3294 1494 
Q 3294 784 2823 350 
Q 2353 -84 1559 -84 
Q 878 -84 544 119 
L 544 744 
Q 1034 425 1544 425 
Q 2050 425 2361 704 
Q 2672 984 2672 1447 
Q 2672 1909 2348 2167 
Q 2025 2425 1434 2425 
Q 978 2425 613 2384 
L 791 4841 
L 3053 4841 
L 3053 4303 
L 1306 4303 
L 1206 2931 
L 1647 2950 
Q 2416 2950 2855 2567 
Q 3294 2184 3294 1494 
z
" transform="scale(0.015625)"/>
       </defs>
       <use xlink:href="#MicrosoftYaHei-35"/>
      </g>
     </g>
    </g>
    <g id="ytick_3">
     <g id="line2d_10">
      <path d="M 40.407813 299.862545 
L 668.391813 299.862545 
" clip-path="url(#pd1d65c9624)" style="fill: none; stroke: #e5e7eb; stroke-width: 0.8; stroke-linecap: square"/>
     </g>
     <g id="line2d_11">
      <g>
       <use xlink:href="#mf20bcd5972" x="40.407813" y="299.862545" style="stroke: #000000; stroke-width: 0.8"/>
      </g>
     </g>
     <g id="text_8">
      <!-- 10 -->
      <g transform="translate(21.679688 303.85942) scale(0.1 -0.1)">
       <defs>
        <path id="MicrosoftYaHei-31" d="M 1781 0 
L 1781 4141 
Q 1638 3997 1295 3819 
Q 953 3641 663 3569 
L 663 4169 
Q 1047 4275 1484 4508 
Q 1922 4741 2156 4947 
L 2388 4947 
L 2388 0 
L 1781 0 
z
" transform="scale(0.015625)"/>
       </defs>
       <use xlink:href="#MicrosoftYaHei-31"/>
       <use xlink:href="#MicrosoftYaHei-30" transform="translate(58.642578 0)"/>
      </g>
     </g>
    </g>
    <g id="ytick_4">
     <g id="line2d_12">
      <path d="M 40.407813 257.589818 
L 668.391813 257.589818 
" clip-path="url(#pd1d65c9624)" style="fill: none; stroke: #e5e7eb; stroke-width: 0.8; stroke-linecap: square"/>
     </g>
     <g id="line2d_13">
      <g>
       <use xlink:href="#mf20bcd5972" x="40.407813" y="257.589818" style="stroke: #000000; stroke-width: 0.8"/>
      </g>
     </g>
     <g id="text_9">
      <!-- 15 -->
      <g transform="translate(21.679688 261.586693) scale(0.1 -0.1)">
       <use xlink:href="#MicrosoftYaHei-31"/>
       <use xlink:href="#MicrosoftYaHei-35" transform="translate(58.642578 0)"/>
      </g>
     </g>
    </g>
    <g id="ytick_5">
     <g id="line2d_14">
      <path d="M 40.407813 215.317091 
L 668.391813 215.317091 
" clip-path="url(#pd1d65c9624)" style="fill: none; stroke: #e5e7eb; stroke-width: 0.8; stroke-linecap: square"/>
     </g>
     <g id="line2d_15">
      <g>
       <use xlink:href="#mf20bcd5972" x="40.407813" y="215.317091" style="stroke: #000000; stroke-width: 0.8"/>
      </g>
     </g>
     <g id="text_10">
      <!-- 20 -->
      <g transform="translate(21.679688 219.313966) scale(0.1 -0.1)">
       <defs>
        <path id="MicrosoftYaHei-32" d="M 2666 3572 
Q 2666 3963 2419 4186 
Q 2172 4409 1747 4409 
Q 1447 4409 1140 4256 
Q 834 4103 569 3819 
L 569 4413 
Q 806 4659 1107 4790 
Q 1409 4922 1816 4922 
Q 2472 4922 2872 4570 
Q 3272 4219 3272 3619 
Q 3272 3084 3026 2693 
Q 2781 2303 2188 1894 
Q 1581 1475 1376 1294 
Q 1172 1113 1090 947 
Q 1009 781 1009 544 
L 3416 544 
L 3416 0 
L 372 0 
L 372 241 
Q 372 659 486 951 
Q 600 1244 862 1520 
Q 1125 1797 1681 2184 
Q 2250 2584 2458 2886 
Q 2666 3188 2666 3572 
z
" transform="scale(0.015625)"/>
       </defs>
       <use xlink:href="#MicrosoftYaHei-32"/>
       <use xlink:href="#MicrosoftYaHei-30" transform="translate(58.642578 0)"/>
      </g>
     </g>
    </g>
    <g id="ytick_6">
     <g id="line2d_16">
      <path d="M 40.407813 173.044364 
L 668.391813 173.044364 
" clip-path="url(#pd1d65c9624)" style="fill: none; stroke: #e5e7eb; stroke-width: 0.8; stroke-linecap: square"/>
     </g>
     <g id="line2d_17">
      <g>
       <use xlink:href="#mf20bcd5972" x="40.407813" y="173.044364" style="stroke: #000000; stroke-width: 0.8"/>
      </g>
     </g>
     <g id="text_11">
      <!-- 25 -->
      <g transform="translate(21.679688 177.041239) scale(0.1 -0.1)">
       <use xlink:href="#MicrosoftYaHei-32"/>
       <use xlink:href="#MicrosoftYaHei-35" transform="translate(58.642578 0)"/>
      </g>
     </g>
    </g>
    <g id="ytick_7">
     <g id="line2d_18">
      <path d="M 40.407813 130.771636 
L 668.391813 130.771636 
" clip-path="url(#pd1d65c9624)" style="fill: none; stroke: #e5e7eb; stroke-width: 0.8; stroke-linecap: square"/>
     </g>
     <g id="line2d_19">
      <g>
       <use xlink:href="#mf20bcd5972" x="40.407813" y="130.771636" style="stroke: #000000; stroke-width: 0.8"/>
      </g>
     </g>
     <g id="text_12">
      <!-- 30 -->
      <g transform="translate(21.679688 134.768511) scale(0.1 -0.1)">
       <defs>
        <path id="MicrosoftYaHei-33" d="M 447 809 
Q 944 425 1569 425 
Q 2069 425 2361 670 
Q 2653 916 2653 1328 
Q 2653 2247 1338 2247 
L 934 2247 
L 934 2753 
L 1319 2753 
Q 2484 2753 2484 3616 
Q 2484 4413 1594 4413 
Q 1084 4413 634 4069 
L 634 4647 
Q 1109 4922 1744 4922 
Q 2363 4922 2738 4598 
Q 3113 4275 3113 3759 
Q 3113 2809 2144 2538 
L 2144 2525 
Q 2669 2469 2973 2155 
Q 3278 1841 3278 1372 
Q 3278 719 2808 319 
Q 2338 -81 1556 -81 
Q 869 -81 447 175 
L 447 809 
z
" transform="scale(0.015625)"/>
       </defs>
       <use xlink:href="#MicrosoftYaHei-33"/>
       <use xlink:href="#MicrosoftYaHei-30" transform="translate(58.642578 0)"/>
      </g>
     </g>
    </g>
    <g id="ytick_8">
     <g id="line2d_20">
      <path d="M 40.407813 88.498909 
L 668.391813 88.498909 
" clip-path="url(#pd1d65c9624)" style="fill: none; stroke: #e5e7eb; stroke-width: 0.8; stroke-linecap: square"/>
     </g>
     <g id="line2d_21">
      <g>
       <use xlink:href="#mf20bcd5972" x="40.407813" y="88.498909" style="stroke: #000000; stroke-width: 0.8"/>
      </g>
     </g>
     <g id="text_13">
      <!-- 35 -->
      <g transform="translate(21.679688 92.495784) scale(0.1 -0.1)">
       <use xlink:href="#MicrosoftYaHei-33"/>
       <use xlink:href="#MicrosoftYaHei-35" transform="translate(58.642578 0)"/>
      </g>
     </g>
    </g>
    <g id="text_14">
     <!-- 价格（元/次） -->
     <g transform="translate(15.19375 249.143937) rotate(-90) scale(0.1 -0.1)">
      <defs>
       <path id="MicrosoftYaHei-4ef7" d="M 69 2166 
Q 913 3484 1388 5259 
L 1875 5109 
Q 1650 4391 1400 3766 
L 1400 -853 
L 931 -853 
L 931 2722 
Q 619 2109 281 1622 
Q 163 1959 69 2166 
z
M 4319 5272 
L 4231 5116 
Q 5006 3747 6319 3141 
Q 6156 2953 5975 2703 
Q 4706 3434 3975 4703 
Q 3275 3497 2000 2603 
Q 1850 2822 1675 2997 
Q 3088 3884 3756 5272 
L 4319 5272 
z
M 3313 2828 
L 3313 1941 
Q 3313 134 2275 -891 
Q 2094 -709 1856 -541 
Q 2825 347 2825 1897 
L 2825 2828 
L 3313 2828 
z
M 4631 2828 
L 5119 2828 
L 5119 -828 
L 4631 -828 
L 4631 2828 
z
" transform="scale(0.015625)"/>
       <path id="MicrosoftYaHei-683c" d="M 2250 3278 
Q 3063 4309 3438 5341 
L 3906 5184 
Q 3788 4903 3644 4628 
L 5906 4628 
L 5906 4184 
Q 5481 3447 4731 2809 
Q 5450 2409 6313 2247 
Q 6169 1947 6106 1703 
Q 5163 1991 4313 2503 
Q 3481 1972 2306 1528 
Q 2206 1759 2094 1966 
Q 3088 2284 3919 2816 
Q 3450 3253 3163 3791 
Q 2888 3366 2563 2947 
Q 2444 3084 2250 3278 
z
M 2713 1559 
L 5800 1559 
L 5800 -872 
L 5319 -872 
L 5319 -559 
L 3194 -559 
L 3194 -872 
L 2713 -872 
L 2713 1559 
z
M 88 1378 
Q 756 2422 1025 3641 
L 131 3641 
L 131 4078 
L 1031 4078 
L 1031 5297 
L 1500 5297 
L 1500 4078 
L 2300 4078 
L 2300 3641 
L 1500 3641 
L 1500 2953 
L 1675 3122 
Q 2013 2797 2419 2384 
L 2094 2078 
Q 1763 2466 1500 2747 
L 1500 -866 
L 1031 -866 
L 1031 2453 
Q 713 1422 288 828 
Q 206 1097 88 1378 
z
M 5319 1109 
L 3194 1109 
L 3194 -109 
L 5319 -109 
L 5319 1109 
z
M 5338 4203 
L 3413 4203 
Q 3775 3491 4300 3078 
Q 4938 3566 5338 4203 
z
" transform="scale(0.015625)"/>
       <path id="MicrosoftYaHei-ff08" d="M 5288 -1100 
Q 4172 119 4172 1850 
Q 4172 3603 5288 4838 
L 5825 4838 
Q 4716 3572 4716 1856 
Q 4716 166 5819 -1100 
L 5288 -1100 
z
" transform="scale(0.015625)"/>
       <path id="MicrosoftYaHei-5143" d="M 188 3084 
L 6225 3084 
L 6225 2609 
L 4250 2609 
L 4250 172 
Q 4250 -197 4625 -197 
L 5163 -197 
Q 5613 -197 5675 216 
Q 5731 566 5769 1103 
Q 6019 1016 6313 947 
Q 6250 409 6181 47 
Q 6056 -641 5275 -641 
L 4513 -641 
Q 3725 -641 3725 128 
L 3725 2609 
L 2450 2609 
L 2450 2409 
Q 2450 1084 2050 447 
Q 1650 -247 469 -847 
Q 244 -572 100 -428 
Q 1181 103 1556 691 
Q 1925 1253 1925 2384 
L 1925 2609 
L 188 2609 
L 188 3084 
z
M 788 4903 
L 5638 4903 
L 5638 4428 
L 788 4428 
L 788 4903 
z
" transform="scale(0.015625)"/>
       <path id="MicrosoftYaHei-2f" d="M 2791 4841 
L 469 -803 
L -103 -803 
L 2219 4841 
L 2791 4841 
z
" transform="scale(0.015625)"/>
       <path id="MicrosoftYaHei-6b21" d="M 4119 3472 
Q 4113 3159 4091 2856 
Q 4509 728 6319 -284 
Q 6063 -559 5913 -772 
Q 4344 331 3900 1944 
Q 3491 200 1650 -866 
Q 1525 -672 1306 -422 
Q 3225 591 3525 2428 
Q 3613 2878 3619 3472 
L 4119 3472 
z
M 4944 2647 
Q 5225 3166 5450 3766 
L 2991 3766 
Q 2719 3144 2388 2572 
Q 2163 2734 1938 2841 
Q 2669 4034 3000 5309 
L 3506 5166 
Q 3356 4675 3175 4209 
L 5988 4209 
L 5988 3766 
Q 5731 3072 5425 2466 
Q 5213 2572 4944 2647 
z
M 1388 2622 
Q 1675 2403 1875 2284 
Q 1075 859 575 -178 
L 69 153 
Q 713 1128 1388 2622 
z
M 644 4916 
Q 1150 4409 1781 3672 
L 1375 3297 
Q 769 4097 281 4591 
L 644 4916 
z
" transform="scale(0.015625)"/>
       <path id="MicrosoftYaHei-ff09" d="M 1113 -1100 
L 575 -1100 
Q 1684 163 1684 1888 
Q 1684 3581 581 4838 
L 1113 4838 
Q 2222 3628 2222 1888 
Q 2222 128 1113 -1100 
z
" transform="scale(0.015625)"/>
      </defs>
      <use xlink:href="#MicrosoftYaHei-4ef7"/>
      <use xlink:href="#MicrosoftYaHei-683c" transform="translate(100 0)"/>
      <use xlink:href="#MicrosoftYaHei-ff08" transform="translate(200 0)"/>
      <use xlink:href="#MicrosoftYaHei-5143" transform="translate(300 0)"/>
      <use xlink:href="#MicrosoftYaHei-2f" transform="translate(400 0)"/>
      <use xlink:href="#MicrosoftYaHei-6b21" transform="translate(442.724609 0)"/>
      <use xlink:href="#MicrosoftYaHei-ff09" transform="translate(542.724609 0)"/>
     </g>
    </g>
   </g>
   <g id="patch_13">
    <path d="M 40.407813 384.408 
L 40.407813 49.608 
" style="fill: none; stroke: #000000; stroke-width: 0.8; stroke-linejoin: miter; stroke-linecap: square"/>
   </g>
   <g id="patch_14">
    <path d="M 40.407813 384.408 
L 668.391813 384.408 
" style="fill: none; stroke: #000000; stroke-width: 0.8; stroke-linejoin: miter; stroke-linecap: square"/>
   </g>
   <g id="text_15">
    <!-- 10 -->
    <g style="fill: #111827" transform="translate(85.446286 292.975202) scale(0.09 -0.09)">
     <use xlink:href="#MicrosoftYaHei-31"/>
     <use xlink:href="#MicrosoftYaHei-30" transform="translate(58.642578 0)"/>
    </g>
   </g>
   <g id="text_16">
    <!-- 20 -->
    <g style="fill: #111827" transform="translate(206.39852 208.429747) scale(0.09 -0.09)">
     <use xlink:href="#MicrosoftYaHei-32"/>
     <use xlink:href="#MicrosoftYaHei-30" transform="translate(58.642578 0)"/>
    </g>
   </g>
   <g id="text_17">
    <!-- 30 -->
    <g style="fill: #111827" transform="translate(327.350754 123.884293) scale(0.09 -0.09)">
     <use xlink:href="#MicrosoftYaHei-33"/>
     <use xlink:href="#MicrosoftYaHei-30" transform="translate(58.642578 0)"/>
    </g>
   </g>
   <g id="text_18">
    <!-- 28 -->
    <g style="fill: #111827" transform="translate(448.302988 140.793384) scale(0.09 -0.09)">
     <defs>
      <path id="MicrosoftYaHei-38" d="M 306 1350 
Q 306 1769 556 2122 
Q 806 2475 1200 2625 
Q 884 2803 700 3081 
Q 516 3359 516 3684 
Q 516 4028 692 4312 
Q 869 4597 1183 4759 
Q 1497 4922 1875 4922 
Q 2256 4922 2572 4761 
Q 2888 4600 3063 4315 
Q 3238 4031 3238 3684 
Q 3238 3366 3058 3086 
Q 2878 2806 2559 2625 
Q 2953 2472 3200 2119 
Q 3447 1766 3447 1350 
Q 3447 938 3250 611 
Q 3053 284 2690 103 
Q 2328 -78 1875 -78 
Q 1425 -78 1065 103 
Q 706 284 506 612 
Q 306 941 306 1350 
z
M 906 1378 
Q 906 947 1172 687 
Q 1438 428 1878 428 
Q 2309 428 2582 692 
Q 2856 956 2856 1378 
Q 2856 1778 2579 2051 
Q 2303 2325 1878 2325 
Q 1456 2325 1181 2058 
Q 906 1791 906 1378 
z
M 1081 3634 
Q 1081 3309 1312 3076 
Q 1544 2844 1878 2844 
Q 2206 2844 2445 3078 
Q 2684 3313 2684 3634 
Q 2684 3963 2454 4191 
Q 2225 4419 1878 4419 
Q 1534 4419 1307 4195 
Q 1081 3972 1081 3634 
z
" transform="scale(0.015625)"/>
     </defs>
     <use xlink:href="#MicrosoftYaHei-32"/>
     <use xlink:href="#MicrosoftYaHei-38" transform="translate(58.642578 0)"/>
    </g>
   </g>
   <g id="text_19">
    <!-- 25 -->
    <g style="fill: #111827" transform="translate(569.255223 166.15702) scale(0.09 -0.09)">
     <use xlink:href="#MicrosoftYaHei-32"/>
     <use xlink:href="#MicrosoftYaHei-35" transform="translate(58.642578 0)"/>
    </g>
   </g>
   <g id="text_20">
    <!-- 7 -->
    <g style="fill: #111827" transform="translate(131.627918 318.338838) scale(0.09 -0.09)">
     <defs>
      <path id="MicrosoftYaHei-37" d="M 3422 4463 
Q 2659 3131 2223 1998 
Q 1788 866 1684 0 
L 1047 0 
Q 1163 853 1594 1947 
Q 2025 3041 2747 4300 
L 347 4300 
L 347 4841 
L 3422 4841 
L 3422 4463 
z
" transform="scale(0.015625)"/>
     </defs>
     <use xlink:href="#MicrosoftYaHei-37"/>
    </g>
   </g>
   <g id="text_21">
    <!-- 18 -->
    <g style="fill: #111827" transform="translate(249.941324 225.338838) scale(0.09 -0.09)">
     <use xlink:href="#MicrosoftYaHei-31"/>
     <use xlink:href="#MicrosoftYaHei-38" transform="translate(58.642578 0)"/>
    </g>
   </g>
   <g id="text_22">
    <!-- 29 -->
    <g style="fill: #111827" transform="translate(370.893558 132.338838) scale(0.09 -0.09)">
     <defs>
      <path id="MicrosoftYaHei-39" d="M 578 656 
Q 978 425 1441 425 
Q 2091 425 2448 937 
Q 2806 1450 2806 2394 
Q 2800 2388 2794 2394 
Q 2475 1788 1722 1788 
Q 1113 1788 713 2206 
Q 313 2625 313 3294 
Q 313 4006 750 4464 
Q 1188 4922 1884 4922 
Q 2606 4922 3012 4355 
Q 3419 3788 3419 2703 
Q 3419 1363 2894 641 
Q 2369 -81 1441 -81 
Q 931 -81 578 84 
L 578 656 
z
M 931 3372 
Q 931 2884 1181 2598 
Q 1431 2313 1872 2313 
Q 2253 2313 2512 2573 
Q 2772 2834 2772 3206 
Q 2772 3728 2514 4070 
Q 2256 4413 1834 4413 
Q 1444 4413 1187 4116 
Q 931 3819 931 3372 
z
" transform="scale(0.015625)"/>
     </defs>
     <use xlink:href="#MicrosoftYaHei-32"/>
     <use xlink:href="#MicrosoftYaHei-39" transform="translate(58.642578 0)"/>
    </g>
   </g>
   <g id="text_23">
    <!-- 27 -->
    <g style="fill: #111827" transform="translate(491.845793 149.247929) scale(0.09 -0.09)">
     <use xlink:href="#MicrosoftYaHei-32"/>
     <use xlink:href="#MicrosoftYaHei-37" transform="translate(58.642578 0)"/>
    </g>
   </g>
   <g id="text_24">
    <!-- 21 -->
    <g style="fill: #111827" transform="translate(612.798027 199.975202) scale(0.09 -0.09)">
     <use xlink:href="#MicrosoftYaHei-32"/>
     <use xlink:href="#MicrosoftYaHei-31" transform="translate(58.642578 0)"/>
    </g>
   </g>
   <g id="text_25">
    <!-- 降幅 30.0% -->
    <g style="fill: #047857" transform="translate(88.35425 270.570656) scale(0.09 -0.09)">
     <defs>
      <path id="MicrosoftYaHei-Bold-964d" d="M 6050 4853 
L 6050 4147 
Q 5675 3588 5194 3216 
Q 5728 3059 6381 3009 
Q 6213 2647 6063 2259 
Q 5081 2441 4394 2750 
Q 3650 2425 2531 2222 
Q 2338 2703 2219 2916 
Q 3025 2994 3647 3194 
Q 3400 3381 3178 3606 
Q 2994 3406 2794 3216 
Q 2569 3528 2306 3828 
Q 3125 4528 3506 5328 
L 4350 5222 
Q 4244 5034 4131 4853 
L 6050 4853 
z
M 4419 3531 
Q 4866 3794 5144 4166 
L 3653 4166 
Q 3644 4156 3638 4147 
Q 3975 3784 4419 3531 
z
M 1869 2722 
Q 2344 2122 2344 1247 
Q 2344 725 2097 483 
Q 1850 241 1250 241 
Q 1213 666 1113 1084 
Q 1244 1053 1344 1053 
Q 1613 1053 1613 1403 
Q 1613 2053 1131 2647 
L 1588 4328 
L 1100 4328 
L 1100 -828 
L 369 -828 
L 369 5047 
L 2400 5047 
L 2400 4453 
L 1869 2722 
z
M 3263 753 
L 4075 753 
L 4075 1403 
L 2513 1403 
L 2513 2103 
L 4075 2103 
L 4075 2503 
L 4825 2503 
L 4825 2103 
L 6056 2103 
L 6056 1403 
L 4825 1403 
L 4825 753 
L 6219 753 
L 6219 53 
L 4825 53 
L 4825 -822 
L 4075 -822 
L 4075 53 
L 2438 53 
L 2438 734 
L 2769 1328 
L 3544 1328 
L 3263 753 
z
" transform="scale(0.015625)"/>
      <path id="MicrosoftYaHei-Bold-5e45" d="M 850 447 
L 319 447 
L 319 4278 
L 1088 4278 
L 1088 5328 
L 1763 5328 
L 1763 4278 
L 2525 4278 
L 2525 1153 
Q 2525 959 2456 723 
Q 2388 488 1844 503 
Q 1822 784 1763 1116 
L 1763 -847 
L 1088 -847 
L 1088 3528 
L 850 3528 
L 850 447 
z
M 2000 1403 
L 2000 3528 
L 1763 3528 
L 1763 1188 
Q 2000 1141 2000 1403 
z
M 2606 5016 
L 6169 5016 
L 6169 4366 
L 2606 4366 
L 2606 5016 
z
M 2919 4072 
L 5856 4072 
L 5856 2484 
L 2919 2484 
L 2919 4072 
z
M 5056 3447 
L 3719 3447 
L 3719 3109 
L 5056 3109 
L 5056 3447 
z
M 2688 2191 
L 6088 2191 
L 6088 -809 
L 5338 -809 
L 5338 -484 
L 3438 -484 
L 3438 -809 
L 2688 -809 
L 2688 2191 
z
M 3438 1141 
L 4038 1141 
L 4038 1591 
L 3438 1591 
L 3438 1141 
z
M 5338 1591 
L 4738 1591 
L 4738 1141 
L 5338 1141 
L 5338 1591 
z
M 3438 116 
L 4038 116 
L 4038 566 
L 3438 566 
L 3438 116 
z
M 4738 116 
L 5338 116 
L 5338 566 
L 4738 566 
L 4738 116 
z
" transform="scale(0.015625)"/>
      <path id="MicrosoftYaHei-Bold-20" transform="scale(0.015625)"/>
      <path id="MicrosoftYaHei-Bold-33" d="M 494 1053 
Q 978 691 1625 691 
Q 2034 691 2275 872 
Q 2516 1053 2516 1388 
Q 2516 1731 2230 1912 
Q 1944 2094 1428 2094 
L 997 2094 
L 997 2872 
L 1394 2872 
Q 2369 2872 2369 3528 
Q 2369 4147 1622 4147 
Q 1134 4147 675 3828 
L 675 4663 
Q 1175 4922 1853 4922 
Q 2541 4922 2969 4605 
Q 3397 4288 3397 3725 
Q 3397 2775 2434 2531 
L 2434 2516 
Q 2941 2459 3244 2145 
Q 3547 1831 3547 1381 
Q 3547 691 3042 303 
Q 2538 -84 1697 -84 
Q 950 -84 494 163 
L 494 1053 
z
" transform="scale(0.015625)"/>
      <path id="MicrosoftYaHei-Bold-30" d="M 244 2341 
Q 244 3597 706 4259 
Q 1169 4922 2044 4922 
Q 3713 4922 3713 2453 
Q 3713 1238 3259 577 
Q 2806 -84 1950 -84 
Q 244 -84 244 2341 
z
M 1266 2366 
Q 1266 691 1981 691 
Q 2684 691 2684 2416 
Q 2684 4147 2000 4147 
Q 1266 4147 1266 2366 
z
" transform="scale(0.015625)"/>
      <path id="MicrosoftYaHei-Bold-2e" d="M 313 453 
Q 313 688 491 838 
Q 669 988 916 988 
Q 1166 988 1337 834 
Q 1509 681 1509 453 
Q 1509 213 1337 64 
Q 1166 -84 903 -84 
Q 659 -84 486 69 
Q 313 222 313 453 
z
" transform="scale(0.015625)"/>
      <path id="MicrosoftYaHei-Bold-25" d="M 297 3597 
Q 297 4191 626 4548 
Q 956 4906 1519 4906 
Q 2056 4906 2354 4581 
Q 2653 4256 2653 3684 
Q 2653 3097 2322 2744 
Q 1991 2391 1438 2391 
Q 919 2391 608 2722 
Q 297 3053 297 3597 
z
M 984 3631 
Q 984 2959 1478 2959 
Q 1981 2959 1981 3659 
Q 1981 4338 1500 4338 
Q 984 4338 984 3631 
z
M 4938 4841 
L 1791 -3 
L 1006 -3 
L 4147 4841 
L 4938 4841 
z
M 3297 1141 
Q 3297 1741 3631 2095 
Q 3966 2450 4522 2450 
Q 5059 2450 5357 2131 
Q 5656 1813 5656 1234 
Q 5656 641 5322 286 
Q 4988 -69 4438 -69 
Q 3922 -69 3609 264 
Q 3297 597 3297 1141 
z
M 3981 1175 
Q 3981 500 4478 500 
Q 4978 500 4978 1200 
Q 4978 1528 4845 1704 
Q 4713 1881 4491 1881 
Q 3981 1881 3981 1175 
z
" transform="scale(0.015625)"/>
     </defs>
     <use xlink:href="#MicrosoftYaHei-Bold-964d"/>
     <use xlink:href="#MicrosoftYaHei-Bold-5e45" transform="translate(100 0)"/>
     <use xlink:href="#MicrosoftYaHei-Bold-20" transform="translate(200 0)"/>
     <use xlink:href="#MicrosoftYaHei-Bold-33" transform="translate(229.785156 0)"/>
     <use xlink:href="#MicrosoftYaHei-Bold-30" transform="translate(291.455078 0)"/>
     <use xlink:href="#MicrosoftYaHei-Bold-2e" transform="translate(353.125 0)"/>
     <use xlink:href="#MicrosoftYaHei-Bold-30" transform="translate(381.689453 0)"/>
     <use xlink:href="#MicrosoftYaHei-Bold-25" transform="translate(443.359375 0)"/>
    </g>
   </g>
   <g id="text_26">
    <!-- 降幅 10.0% -->
    <g style="fill: #047857" transform="translate(209.306485 186.025202) scale(0.09 -0.09)">
     <defs>
      <path id="MicrosoftYaHei-Bold-31" d="M 2716 4947 
L 2716 0 
L 1700 0 
L 1700 3809 
Q 1513 3647 1188 3517 
Q 863 3388 591 3356 
L 591 4222 
Q 1447 4472 2072 4947 
L 2716 4947 
z
" transform="scale(0.015625)"/>
     </defs>
     <use xlink:href="#MicrosoftYaHei-Bold-964d"/>
     <use xlink:href="#MicrosoftYaHei-Bold-5e45" transform="translate(100 0)"/>
     <use xlink:href="#MicrosoftYaHei-Bold-20" transform="translate(200 0)"/>
     <use xlink:href="#MicrosoftYaHei-Bold-31" transform="translate(229.785156 0)"/>
     <use xlink:href="#MicrosoftYaHei-Bold-30" transform="translate(291.455078 0)"/>
     <use xlink:href="#MicrosoftYaHei-Bold-2e" transform="translate(353.125 0)"/>
     <use xlink:href="#MicrosoftYaHei-Bold-30" transform="translate(381.689453 0)"/>
     <use xlink:href="#MicrosoftYaHei-Bold-25" transform="translate(443.359375 0)"/>
    </g>
   </g>
   <g id="text_27">
    <!-- 降幅 3.3% -->
    <g style="fill: #047857" transform="translate(333.033953 101.479747) scale(0.09 -0.09)">
     <use xlink:href="#MicrosoftYaHei-Bold-964d"/>
     <use xlink:href="#MicrosoftYaHei-Bold-5e45" transform="translate(100 0)"/>
     <use xlink:href="#MicrosoftYaHei-Bold-20" transform="translate(200 0)"/>
     <use xlink:href="#MicrosoftYaHei-Bold-33" transform="translate(229.785156 0)"/>
     <use xlink:href="#MicrosoftYaHei-Bold-2e" transform="translate(291.455078 0)"/>
     <use xlink:href="#MicrosoftYaHei-Bold-33" transform="translate(320.019531 0)"/>
     <use xlink:href="#MicrosoftYaHei-Bold-25" transform="translate(381.689453 0)"/>
    </g>
   </g>
   <g id="text_28">
    <!-- 降幅 3.6% -->
    <g style="fill: #047857" transform="translate(453.986187 118.388838) scale(0.09 -0.09)">
     <defs>
      <path id="MicrosoftYaHei-Bold-36" d="M 3378 3938 
Q 3009 4147 2575 4147 
Q 2016 4147 1680 3708 
Q 1344 3269 1344 2572 
L 1363 2572 
Q 1709 3103 2391 3103 
Q 3000 3103 3358 2686 
Q 3716 2269 3716 1600 
Q 3716 869 3250 392 
Q 2784 -84 2059 -84 
Q 1228 -84 786 516 
Q 344 1116 344 2159 
Q 344 3388 917 4155 
Q 1491 4922 2513 4922 
Q 3063 4922 3378 4791 
L 3378 3938 
z
M 1378 1591 
Q 1378 1216 1565 953 
Q 1753 691 2059 691 
Q 2369 691 2547 931 
Q 2725 1172 2725 1534 
Q 2725 2350 2053 2350 
Q 1750 2350 1564 2134 
Q 1378 1919 1378 1591 
z
" transform="scale(0.015625)"/>
     </defs>
     <use xlink:href="#MicrosoftYaHei-Bold-964d"/>
     <use xlink:href="#MicrosoftYaHei-Bold-5e45" transform="translate(100 0)"/>
     <use xlink:href="#MicrosoftYaHei-Bold-20" transform="translate(200 0)"/>
     <use xlink:href="#MicrosoftYaHei-Bold-33" transform="translate(229.785156 0)"/>
     <use xlink:href="#MicrosoftYaHei-Bold-2e" transform="translate(291.455078 0)"/>
     <use xlink:href="#MicrosoftYaHei-Bold-36" transform="translate(320.019531 0)"/>
     <use xlink:href="#MicrosoftYaHei-Bold-25" transform="translate(381.689453 0)"/>
    </g>
   </g>
   <g id="text_29">
    <!-- 降幅 16.0% -->
    <g style="fill: #047857" transform="translate(572.163187 143.752474) scale(0.09 -0.09)">
     <use xlink:href="#MicrosoftYaHei-Bold-964d"/>
     <use xlink:href="#MicrosoftYaHei-Bold-5e45" transform="translate(100 0)"/>
     <use xlink:href="#MicrosoftYaHei-Bold-20" transform="translate(200 0)"/>
     <use xlink:href="#MicrosoftYaHei-Bold-31" transform="translate(229.785156 0)"/>
     <use xlink:href="#MicrosoftYaHei-Bold-36" transform="translate(291.455078 0)"/>
     <use xlink:href="#MicrosoftYaHei-Bold-2e" transform="translate(353.125 0)"/>
     <use xlink:href="#MicrosoftYaHei-Bold-30" transform="translate(381.689453 0)"/>
     <use xlink:href="#MicrosoftYaHei-Bold-25" transform="translate(443.359375 0)"/>
    </g>
   </g>
   <g id="legend_1">
    <g id="patch_15">
     <path d="M 49.407813 66.60175 
L 69.407813 66.60175 
L 69.407813 59.60175 
L 49.407813 59.60175 
z
" style="fill: #94a3b8; stroke: #64748b; stroke-width: 0.8; stroke-linejoin: miter"/>
    </g>
    <g id="text_30">
     <!-- 基准价格 -->
     <g transform="translate(77.407813 66.60175) scale(0.1 -0.1)">
      <defs>
       <path id="MicrosoftYaHei-57fa" d="M 6319 697 
Q 6113 441 5981 247 
Q 5406 519 4925 897 
L 4925 553 
L 3431 553 
L 3431 -97 
L 5875 -97 
L 5875 -503 
L 519 -503 
L 519 -97 
L 2963 -97 
L 2963 553 
L 1450 553 
L 1450 894 
Q 953 478 413 172 
Q 294 341 88 566 
Q 1050 1034 1753 1753 
L 156 1753 
L 156 2159 
L 1400 2159 
L 1400 4253 
L 350 4253 
L 350 4659 
L 1400 4659 
L 1400 5334 
L 1869 5334 
L 1869 4659 
L 4550 4659 
L 4550 5334 
L 5019 5334 
L 5019 4659 
L 6069 4659 
L 6069 4253 
L 5019 4253 
L 5019 2159 
L 6244 2159 
L 6244 1753 
L 4600 1753 
Q 5303 1053 6319 697 
z
M 2963 1553 
L 3431 1553 
L 3431 947 
L 4863 947 
Q 4416 1306 4047 1753 
L 2325 1753 
Q 1934 1309 1513 947 
L 2963 947 
L 2963 1553 
z
M 1869 2159 
L 4550 2159 
L 4550 2603 
L 1869 2603 
L 1869 2159 
z
M 1869 2991 
L 4550 2991 
L 4550 3428 
L 1869 3428 
L 1869 2991 
z
M 1869 3816 
L 4550 3816 
L 4550 4253 
L 1869 4253 
L 1869 3816 
z
" transform="scale(0.015625)"/>
       <path id="MicrosoftYaHei-51c6" d="M 1413 2766 
Q 2313 3866 2869 5334 
L 3331 5172 
Q 3128 4694 2906 4253 
L 6194 4253 
L 6194 3822 
L 4675 3822 
L 4675 2891 
L 6025 2891 
L 6025 2459 
L 4675 2459 
L 4675 1528 
L 6038 1528 
L 6038 1097 
L 4675 1097 
L 4675 78 
L 6275 78 
L 6275 -341 
L 2769 -341 
L 2769 -841 
L 2281 -841 
L 2281 3131 
Q 2034 2738 1769 2384 
Q 1631 2578 1413 2766 
z
M 2769 78 
L 4188 78 
L 4188 1097 
L 2769 1097 
L 2769 78 
z
M 1081 2422 
Q 1325 2291 1556 2209 
Q 1113 916 681 -372 
L 169 -141 
Q 650 1003 1081 2422 
z
M 2769 1528 
L 4188 1528 
L 4188 2459 
L 2769 2459 
L 2769 1528 
z
M 2769 2891 
L 4188 2891 
L 4188 3822 
L 2769 3822 
L 2769 2891 
z
M 531 4991 
Q 1050 4384 1581 3709 
Q 1538 3678 1150 3341 
Q 681 3997 138 4672 
L 531 4991 
z
M 3919 5116 
L 4325 5372 
Q 4569 5072 4881 4622 
L 4450 4334 
Q 4156 4784 3919 5116 
z
" transform="scale(0.015625)"/>
      </defs>
      <use xlink:href="#MicrosoftYaHei-57fa"/>
      <use xlink:href="#MicrosoftYaHei-51c6" transform="translate(100 0)"/>
      <use xlink:href="#MicrosoftYaHei-4ef7" transform="translate(200 0)"/>
      <use xlink:href="#MicrosoftYaHei-683c" transform="translate(300 0)"/>
     </g>
    </g>
    <g id="patch_16">
     <path d="M 137.407813 66.60175 
L 157.407813 66.60175 
L 157.407813 59.60175 
L 137.407813 59.60175 
z
" style="fill: #2563eb; stroke: #1e40af; stroke-width: 0.8; stroke-linejoin: miter"/>
    </g>
    <g id="text_31">
     <!-- 优化价格 -->
     <g transform="translate(165.407813 66.60175) scale(0.1 -0.1)">
      <defs>
       <path id="MicrosoftYaHei-4f18" d="M 1825 3609 
L 3184 3609 
Q 3216 4322 3213 5272 
L 3713 5272 
Q 3719 4338 3688 3609 
L 6188 3609 
L 6188 3153 
L 4475 3153 
L 4475 228 
Q 4475 -122 4838 -122 
L 5244 -122 
Q 5656 -122 5700 303 
Q 5750 659 5781 1266 
Q 6031 1166 6294 1066 
Q 6244 528 6175 109 
Q 6100 -291 5900 -447 
Q 5713 -603 5275 -597 
L 4763 -597 
Q 4325 -597 4150 -422 
Q 3969 -259 3969 184 
L 3969 3153 
L 3663 3153 
Q 3600 791 1950 -803 
Q 1775 -597 1575 -397 
Q 3100 1028 3159 3153 
L 1825 3153 
L 1825 3609 
z
M 88 2334 
Q 1056 3641 1556 5291 
L 2063 5122 
Q 1753 4253 1388 3522 
L 1388 -809 
L 913 -809 
L 913 2666 
Q 616 2184 288 1778 
Q 194 2047 88 2334 
z
M 4600 5184 
Q 5269 4759 5713 4391 
Q 5538 4197 5388 3991 
Q 4875 4447 4325 4841 
L 4600 5184 
z
" transform="scale(0.015625)"/>
       <path id="MicrosoftYaHei-5316" d="M 1844 1453 
Q 2663 1834 3375 2331 
L 3375 5197 
L 3913 5197 
L 3913 2734 
Q 4869 3506 5613 4516 
L 6069 4184 
Q 5159 2975 3913 2069 
L 3913 303 
Q 3913 -122 4363 -122 
L 5156 -122 
Q 5581 -122 5650 284 
Q 5738 709 5763 1266 
Q 6025 1166 6313 1084 
Q 6263 559 6181 122 
Q 6063 -597 5281 -597 
L 4225 -597 
Q 3375 -597 3375 241 
L 3375 1703 
Q 2791 1328 2144 1016 
Q 2013 1222 1844 1453 
z
M 88 2222 
Q 1175 3666 1688 5291 
L 2231 5134 
Q 1934 4359 1588 3675 
L 1588 -797 
L 1063 -797 
L 1063 2734 
Q 716 2172 325 1678 
Q 219 1947 88 2222 
z
" transform="scale(0.015625)"/>
      </defs>
      <use xlink:href="#MicrosoftYaHei-4f18"/>
      <use xlink:href="#MicrosoftYaHei-5316" transform="translate(100 0)"/>
      <use xlink:href="#MicrosoftYaHei-4ef7" transform="translate(200 0)"/>
      <use xlink:href="#MicrosoftYaHei-683c" transform="translate(300 0)"/>
     </g>
    </g>
   </g>
  </g>
  <g id="text_32">
   <!-- 紧急救助为公益免费服务，不参与价格优化 -->
   <g style="fill: #4b5563" transform="translate(206.203813 17.591875) scale(0.13 -0.13)">
    <defs>
     <path id="MicrosoftYaHei-7d27" d="M 4688 1934 
Q 5388 1347 5994 759 
L 5631 428 
Q 5391 675 5150 913 
Q 4381 875 3606 838 
L 3606 -3 
Q 3606 -747 2875 -747 
Q 2531 -747 2088 -734 
Q 2063 -522 2013 -241 
Q 2481 -291 2775 -291 
Q 3131 -291 3131 59 
L 3131 816 
Q 2409 778 1688 741 
Q 1269 716 963 659 
L 706 1153 
Q 1188 1247 1538 1378 
Q 2350 1672 3131 1997 
Q 2366 1947 1656 1897 
Q 1406 1878 1181 1834 
L 975 2309 
Q 1300 2391 1575 2484 
Q 2291 2778 2725 3022 
Q 2644 3206 2525 3378 
Q 3172 3453 3722 3669 
Q 3231 4056 2944 4616 
L 2663 4616 
L 2663 5003 
L 5656 5003 
L 5656 4603 
Q 5231 4044 4578 3647 
Q 5256 3366 6219 3328 
Q 6088 3103 5969 2859 
Q 4869 2981 4122 3403 
Q 3631 3172 3038 3016 
L 3250 2859 
Q 2450 2503 1813 2259 
Q 2756 2284 3922 2334 
Q 4316 2509 4700 2691 
L 5044 2391 
Q 3663 1766 1800 1109 
Q 3184 1166 4788 1266 
Q 4575 1469 4363 1666 
L 4688 1934 
z
M 1769 5228 
L 2219 5228 
L 2219 2916 
L 1769 2916 
L 1769 5228 
z
M 556 5066 
L 1006 5066 
L 1006 2984 
L 556 2984 
L 556 5066 
z
M 4138 191 
L 4375 566 
Q 5281 184 6094 -203 
L 5825 -641 
Q 5056 -228 4138 191 
z
M 1925 591 
L 2231 228 
Q 1381 -272 525 -684 
Q 431 -528 275 -272 
Q 1119 59 1925 591 
z
M 5138 4616 
L 3406 4616 
Q 3688 4163 4153 3869 
Q 4703 4159 5138 4616 
z
" transform="scale(0.015625)"/>
     <path id="MicrosoftYaHei-6025" d="M 813 1791 
L 5181 1791 
L 5181 2378 
L 963 2378 
L 963 2778 
L 5181 2778 
L 5181 3359 
L 1038 3359 
L 1038 3584 
Q 781 3366 500 3159 
Q 350 3309 144 3484 
Q 1388 4341 2044 5391 
L 2563 5272 
Q 2403 5031 2222 4803 
L 4575 4803 
L 4575 4384 
Q 4381 4188 3991 3772 
L 5656 3772 
L 5656 1159 
L 5181 1159 
L 5181 1378 
L 3106 1378 
Q 3469 1003 3813 591 
L 3406 278 
Q 3088 716 2706 1153 
L 3003 1378 
L 813 1378 
L 813 1791 
z
M 1688 1009 
L 2175 1009 
L 2175 122 
Q 2175 -278 2538 -278 
L 3950 -278 
Q 4331 -278 4419 41 
Q 4488 297 4538 753 
Q 4756 659 5031 566 
Q 4938 78 4869 -147 
Q 4713 -716 4031 -716 
L 2413 -716 
Q 1688 -716 1688 97 
L 1688 1009 
z
M 3956 4391 
L 1872 4391 
Q 1584 4072 1253 3772 
L 3406 3772 
Q 3700 4088 3956 4391 
z
M 700 1066 
L 1169 922 
Q 975 266 613 -472 
Q 406 -372 150 -272 
Q 506 353 700 1066 
z
M 5150 822 
L 5544 1072 
Q 5981 516 6363 -47 
L 5931 -341 
Q 5544 284 5150 822 
z
" transform="scale(0.015625)"/>
     <path id="MicrosoftYaHei-6551" d="M 2988 2153 
Q 3688 3459 4113 5216 
L 4563 5103 
Q 4438 4591 4275 4084 
L 6225 4084 
L 6225 3634 
L 5738 3634 
Q 5619 1853 4881 759 
Q 5425 78 6281 -359 
Q 6106 -616 5988 -822 
Q 5119 -316 4563 359 
Q 3913 -378 2944 -884 
Q 2831 -722 2638 -472 
Q 3644 41 4269 778 
Q 3838 1484 3644 2466 
Q 3519 2191 3381 1916 
Q 3188 2047 2988 2153 
z
M 225 4172 
L 1494 4172 
L 1494 5222 
L 1956 5222 
L 1956 4172 
L 3275 4172 
L 3275 3722 
L 1956 3722 
L 1956 1503 
L 2213 1772 
Q 2613 1403 3275 766 
L 2913 397 
Q 2431 928 1956 1384 
L 1956 41 
Q 1956 -791 1231 -791 
Q 888 -791 431 -784 
Q 394 -528 331 -228 
Q 769 -278 1063 -278 
Q 1494 -278 1494 172 
L 1494 1347 
Q 969 872 425 341 
L 113 728 
Q 763 1253 1288 1741 
L 1494 1459 
L 1494 3722 
L 225 3722 
L 225 4172 
z
M 3963 3216 
Q 4131 1972 4575 1203 
Q 5163 2147 5275 3634 
L 4119 3634 
Q 4044 3422 3963 3216 
z
M 2769 3297 
L 3181 3053 
Q 2800 2491 2450 2028 
L 2063 2303 
Q 2494 2841 2769 3297 
z
M 294 3097 
L 688 3328 
Q 1019 2809 1331 2291 
L 906 2047 
Q 594 2628 294 3097 
z
M 2213 4884 
L 2475 5184 
Q 2838 4941 3169 4666 
L 2869 4322 
Q 2581 4616 2213 4884 
z
" transform="scale(0.015625)"/>
     <path id="MicrosoftYaHei-4e3a" d="M 356 3684 
L 2703 3684 
Q 2794 4450 2794 5341 
L 3331 5341 
Q 3331 4413 3244 3684 
L 5900 3684 
Q 5863 1753 5788 497 
Q 5725 -672 4550 -672 
Q 4063 -672 3394 -641 
Q 3369 -397 3300 -59 
Q 3888 -141 4456 -141 
Q 5206 -141 5244 597 
Q 5331 1822 5356 3197 
L 3175 3197 
Q 2716 441 606 -903 
Q 431 -684 225 -441 
Q 2169 706 2628 3197 
L 356 3197 
L 356 3684 
z
M 3325 2072 
L 3669 2378 
Q 4269 1822 4756 1284 
L 4369 934 
Q 3888 1503 3325 2072 
z
M 800 4922 
L 1138 5234 
Q 1656 4784 2138 4309 
L 1756 3953 
Q 1294 4459 800 4922 
z
" transform="scale(0.015625)"/>
     <path id="MicrosoftYaHei-516c" d="M 4144 1591 
Q 5044 422 5663 -534 
L 5188 -847 
Q 5013 -559 4816 -250 
Q 2753 -350 1463 -453 
Q 1225 -478 888 -559 
L 613 -28 
Q 894 84 1131 316 
Q 1863 1159 2719 2809 
L 3256 2566 
Q 2481 1234 1600 78 
Q 2891 119 4522 194 
Q 4166 734 3738 1334 
L 4144 1591 
z
M 3606 4953 
L 4069 5134 
Q 4675 3503 6325 2547 
Q 6156 2372 5938 2059 
Q 4213 3247 3606 4953 
z
M 75 2366 
Q 1469 3503 2156 5047 
L 2650 4841 
Q 1806 3084 475 1966 
Q 313 2172 75 2366 
z
" transform="scale(0.015625)"/>
     <path id="MicrosoftYaHei-76ca" d="M 113 -103 
L 1019 -103 
L 1019 1997 
L 5406 1997 
L 5406 -103 
L 6269 -103 
L 6269 -541 
L 113 -541 
L 113 -103 
z
M 263 4116 
L 3672 4116 
Q 4225 4650 4744 5334 
L 5200 5047 
Q 4775 4553 4331 4116 
L 6175 4116 
L 6175 3678 
L 263 3678 
L 263 4116 
z
M 4956 1572 
L 4081 1572 
L 4081 -103 
L 4956 -103 
L 4956 1572 
z
M 1469 -103 
L 2338 -103 
L 2338 1572 
L 1469 1572 
L 1469 -103 
z
M 2775 -103 
L 3644 -103 
L 3644 1572 
L 2775 1572 
L 2775 -103 
z
M 2338 3484 
L 2644 3078 
Q 1669 2484 456 1872 
Q 331 2116 200 2309 
Q 1369 2872 2338 3484 
z
M 3794 3091 
L 4050 3472 
Q 5300 2884 6213 2384 
L 5938 1922 
Q 4706 2634 3794 3091 
z
M 1238 5016 
L 1563 5341 
Q 2100 4953 2531 4584 
L 2175 4209 
Q 1769 4597 1238 5016 
z
" transform="scale(0.015625)"/>
     <path id="MicrosoftYaHei-514d" d="M 131 -447 
Q 1950 147 2556 1472 
L 1319 1472 
L 1319 1234 
L 838 1234 
L 838 3109 
Q 625 2928 406 2766 
Q 331 2872 69 3178 
Q 1188 3934 2138 5322 
L 2613 5147 
Q 2444 4897 2275 4666 
L 4719 4666 
L 4719 4222 
L 4019 3522 
L 5519 3522 
L 5519 1234 
L 5038 1234 
L 5038 1472 
L 3081 1472 
Q 2500 -122 456 -909 
Q 281 -597 131 -447 
z
M 5038 3084 
L 3381 3084 
Q 3338 2428 3213 1909 
L 5038 1909 
L 5038 3084 
z
M 1319 1909 
L 2713 1909 
Q 2863 2416 2894 3084 
L 1319 3084 
L 1319 1909 
z
M 4063 4228 
L 1931 4228 
Q 1619 3853 1288 3522 
L 3369 3522 
L 4063 4228 
z
M 3156 1153 
L 3638 1153 
L 3638 228 
Q 3638 -47 3731 -134 
Q 3831 -234 4125 -234 
L 5200 -234 
Q 5650 -234 5713 141 
Q 5788 547 5813 1053 
Q 6056 953 6294 872 
Q 6250 384 6181 -16 
Q 6081 -697 5225 -697 
L 3981 -697 
Q 3506 -697 3331 -503 
Q 3156 -341 3156 141 
L 3156 1153 
z
" transform="scale(0.015625)"/>
     <path id="MicrosoftYaHei-8d39" d="M 525 4753 
L 2319 4753 
Q 2331 5034 2331 5278 
L 2781 5278 
Q 2781 5034 2769 4753 
L 3856 4753 
L 3856 5278 
L 4306 5278 
L 4306 4753 
L 5813 4753 
L 5813 3328 
L 5363 3328 
L 5363 3484 
L 4306 3484 
L 4306 2922 
L 6094 2922 
Q 6081 2472 6025 2153 
Q 5956 1716 5463 1716 
Q 5388 1716 5275 1716 
L 5275 191 
L 4825 191 
L 4825 1466 
L 1688 1466 
L 1688 116 
L 1238 116 
L 1238 1466 
Q 856 1297 369 1153 
Q 288 1334 100 1584 
Q 1525 1891 1981 2559 
L 606 2559 
L 806 3847 
L 2294 3847 
Q 2313 4091 2313 4391 
L 525 4391 
L 525 4753 
z
M 4744 2153 
Q 5094 2116 5325 2116 
Q 5575 2116 5613 2303 
Q 5638 2441 5644 2559 
L 4306 2559 
L 4306 1947 
L 3856 1947 
L 3856 2559 
L 2513 2559 
Q 2344 2178 1925 1866 
L 4831 1866 
Q 4800 1984 4744 2153 
z
M 3031 1116 
L 3475 1116 
Q 3475 716 3388 409 
Q 4813 -9 5975 -422 
L 5744 -872 
Q 4481 -403 3231 9 
Q 2844 -622 669 -878 
Q 550 -578 456 -428 
Q 1900 -291 2625 53 
Q 3044 259 3031 1116 
z
M 2631 2922 
L 3856 2922 
L 3856 3484 
L 2719 3484 
Q 2688 3153 2631 2922 
z
M 1113 2922 
L 2156 2922 
Q 2225 3141 2263 3484 
L 1188 3484 
L 1113 2922 
z
M 2744 3847 
L 3856 3847 
L 3856 4391 
L 2763 4391 
Q 2763 4097 2744 3847 
z
M 5363 4391 
L 4306 4391 
L 4306 3847 
L 5363 3847 
L 5363 4391 
z
" transform="scale(0.015625)"/>
     <path id="MicrosoftYaHei-670d" d="M 2819 4941 
L 5906 4941 
Q 5875 4434 5856 4141 
Q 5806 3172 4869 3191 
Q 4613 3197 4063 3216 
Q 4025 3459 3981 3709 
Q 4444 3653 4813 3641 
Q 5350 3622 5394 4153 
Q 5413 4316 5425 4509 
L 3294 4509 
L 3294 2709 
L 5931 2709 
L 5931 2341 
Q 5681 1244 5016 431 
Q 5556 -81 6356 -366 
Q 6144 -616 5994 -816 
Q 5225 -456 4691 78 
Q 4213 -394 3569 -753 
Q 3450 -547 3313 -341 
Q 3938 -22 4391 422 
Q 3781 1203 3588 2303 
L 3294 2303 
L 3294 -803 
L 2819 -803 
L 2819 4941 
z
M 538 4966 
L 2300 4966 
L 2300 -103 
Q 2300 -728 1719 -728 
Q 1400 -728 1125 -709 
Q 1100 -522 1050 -266 
Q 1369 -316 1600 -316 
Q 1856 -316 1856 -59 
L 1856 1378 
L 981 1378 
Q 1000 -59 463 -816 
Q 325 -634 119 -466 
Q 538 178 538 1359 
L 538 4966 
z
M 5438 2303 
L 4016 2303 
Q 4209 1403 4706 772 
Q 5222 1425 5438 2303 
z
M 981 1766 
L 1856 1766 
L 1856 2972 
L 981 2972 
L 981 1766 
z
M 1856 4559 
L 981 4559 
L 981 3359 
L 1856 3359 
L 1856 4559 
z
" transform="scale(0.015625)"/>
     <path id="MicrosoftYaHei-52a1" d="M 1900 5391 
L 2369 5191 
Q 2228 4959 2075 4741 
L 5456 4741 
L 5456 4322 
Q 4875 3616 3866 3088 
Q 4916 2706 6369 2616 
Q 6169 2334 6019 2091 
Q 4391 2306 3288 2819 
Q 2047 2291 288 1984 
Q 181 2178 31 2422 
Q 1597 2663 2750 3103 
Q 2038 3538 1609 4131 
Q 1125 3556 538 3066 
Q 350 3266 194 3403 
Q 1344 4316 1900 5391 
z
M 588 1728 
L 2406 1728 
Q 2450 2031 2481 2403 
L 2988 2403 
Q 2947 2031 2903 1728 
L 5425 1728 
Q 5363 609 5306 159 
Q 5206 -722 4256 -728 
Q 3888 -734 3150 -703 
Q 3113 -472 3056 -184 
Q 3775 -247 4244 -253 
Q 4775 -241 4831 284 
Q 4888 753 4913 1284 
L 2828 1284 
Q 2497 -219 500 -897 
Q 356 -691 194 -478 
Q 1988 103 2319 1284 
L 588 1284 
L 588 1728 
z
M 4788 4328 
L 1997 4328 
Q 2500 3725 3291 3334 
Q 4194 3756 4788 4328 
z
" transform="scale(0.015625)"/>
     <path id="MicrosoftYaHei-ff0c" d="M 1931 775 
L 1403 -891 
L 966 -891 
L 1350 775 
L 1931 775 
z
" transform="scale(0.015625)"/>
     <path id="MicrosoftYaHei-4e0d" d="M 225 4772 
L 6181 4772 
L 6181 4284 
L 3881 4284 
Q 3581 3766 3081 3053 
L 3444 3053 
L 3444 -866 
L 2906 -866 
L 2906 2859 
Q 1838 1541 388 609 
Q 231 834 38 1059 
Q 2006 2291 3213 4284 
L 225 4284 
L 225 4772 
z
M 4069 2859 
Q 5238 2147 6325 1409 
L 5969 916 
Q 4681 1872 3763 2434 
L 4069 2859 
z
" transform="scale(0.015625)"/>
     <path id="MicrosoftYaHei-53c2" d="M 256 3159 
L 2234 3159 
Q 2428 3391 2600 3641 
Q 2031 3609 1469 3578 
Q 1288 3566 988 3522 
L 825 4003 
Q 1144 4091 1400 4291 
Q 1944 4697 2606 5372 
L 3100 5109 
Q 2394 4497 1738 4034 
Q 2906 4066 4397 4122 
Q 4072 4388 3744 4628 
L 4050 4947 
Q 5006 4278 5606 3772 
L 5256 3397 
Q 5053 3575 4853 3747 
Q 3778 3700 2719 3647 
L 3069 3497 
Q 2944 3322 2813 3159 
L 6144 3159 
L 6144 2741 
L 4353 2741 
Q 5128 1941 6325 1578 
Q 6119 1297 6000 1109 
Q 4644 1697 3828 2741 
L 2453 2741 
Q 1550 1750 363 1116 
Q 231 1328 56 1509 
Q 1091 2009 1841 2741 
L 256 2741 
L 256 3159 
z
M 4969 1016 
L 5313 697 
Q 3525 -509 1019 -891 
Q 906 -666 781 -478 
Q 3331 -59 4969 1016 
z
M 4231 1703 
L 4525 1353 
Q 2813 391 1119 47 
Q 988 341 913 466 
Q 2694 828 4231 1703 
z
M 3556 2453 
L 3863 2128 
Q 2694 1397 1388 1009 
Q 1288 1216 1150 1422 
Q 2344 1734 3556 2453 
z
" transform="scale(0.015625)"/>
     <path id="MicrosoftYaHei-4e0e" d="M 1163 2384 
L 1163 2859 
L 1413 5328 
L 1931 5328 
L 1834 4334 
L 6269 4334 
L 6269 3859 
L 1791 3859 
L 1694 2859 
L 5813 2859 
Q 5738 1547 5644 416 
Q 5556 -247 5263 -478 
Q 4981 -703 4322 -703 
Q 3706 -697 2900 -678 
Q 2863 -466 2794 -134 
Q 3744 -203 4213 -209 
Q 5050 -266 5125 447 
Q 5206 1278 5263 2384 
L 1163 2384 
z
M 106 1409 
L 4738 1409 
L 4738 934 
L 106 934 
L 106 1409 
z
" transform="scale(0.015625)"/>
    </defs>
    <use xlink:href="#MicrosoftYaHei-7d27"/>
    <use xlink:href="#MicrosoftYaHei-6025" transform="translate(100 0)"/>
    <use xlink:href="#MicrosoftYaHei-6551" transform="translate(200 0)"/>
    <use xlink:href="#MicrosoftYaHei-52a9" transform="translate(300 0)"/>
    <use xlink:href="#MicrosoftYaHei-4e3a" transform="translate(400 0)"/>
    <use xlink:href="#MicrosoftYaHei-516c" transform="translate(500 0)"/>
    <use xlink:href="#MicrosoftYaHei-76ca" transform="translate(600 0)"/>
    <use xlink:href="#MicrosoftYaHei-514d" transform="translate(700 0)"/>
    <use xlink:href="#MicrosoftYaHei-8d39" transform="translate(800 0)"/>
    <use xlink:href="#MicrosoftYaHei-670d" transform="translate(900 0)"/>
    <use xlink:href="#MicrosoftYaHei-52a1" transform="translate(1000 0)"/>
    <use xlink:href="#MicrosoftYaHei-ff0c" transform="translate(1100 0)"/>
    <use xlink:href="#MicrosoftYaHei-4e0d" transform="translate(1200 0)"/>
    <use xlink:href="#MicrosoftYaHei-53c2" transform="translate(1300 0)"/>
    <use xlink:href="#MicrosoftYaHei-4e0e" transform="translate(1400 0)"/>
    <use xlink:href="#MicrosoftYaHei-4ef7" transform="translate(1500 0)"/>
    <use xlink:href="#MicrosoftYaHei-683c" transform="translate(1600 0)"/>
    <use xlink:href="#MicrosoftYaHei-4f18" transform="translate(1700 0)"/>
    <use xlink:href="#MicrosoftYaHei-5316" transform="translate(1800 0)"/>
   </g>
  </g>
 </g>
 <defs>
  <clipPath id="pd1d65c9624">
   <rect x="40.407813" y="49.608" width="627.984" height="334.8"/>
  </clipPath>
 </defs>
</svg>
